<svg xmlns="http://www.w3.org/2000/svg" viewBox="0 0 212.57 256.94"><defs><style>.cls-1{fill:#fdb917;}.cls-2{fill:#ef3829;}.cls-3{fill:#0076be;}.cls-4{fill:#00a95c;}.cls-5{fill:#414042;}</style></defs><title>Asset 1</title><g id="Layer_2" data-name="Layer 2"><g id="Layer_1-2" data-name="Layer 1"><rect class="cls-1" x="120.84" width="91.69" height="187.9"/><polygon class="cls-2" points="0 0 93 0 0 96.52 0 0"/><polygon class="cls-3" points="0 215.75 0 123.36 96.72 215.75 0 215.75"/><polygon class="cls-4" points="27.18 105.25 92.71 39.72 94.65 172.72 27.18 105.25"/><path class="cls-5" d="M1.14,226.83h4v12.8h.33l13.09-12.8h5.6L9.88,240.5l15.26,15.93H19.29l-13.8-14.8H5.16v14.8h-4Z"/><path class="cls-5" d="M26.32,246.52a10.1,10.1,0,0,1,.82-4.06,10.56,10.56,0,0,1,2.24-3.3,10.65,10.65,0,0,1,15,0,10.58,10.58,0,0,1,2.24,3.3,10.1,10.1,0,0,1,.82,4.06,10.3,10.3,0,0,1-3.05,7.38A10.62,10.62,0,0,1,41,256.12a10.92,10.92,0,0,1-8.28,0,10.6,10.6,0,0,1-3.35-2.22,10.3,10.3,0,0,1-3.05-7.38Zm4,0a8.13,8.13,0,0,0,.46,2.78,6.26,6.26,0,0,0,1.3,2.17,6,6,0,0,0,2,1.42,7.33,7.33,0,0,0,5.44,0,6,6,0,0,0,2-1.42,6.28,6.28,0,0,0,1.3-2.17,8.64,8.64,0,0,0,0-5.56,6.3,6.3,0,0,0-1.3-2.17,6,6,0,0,0-2-1.42,7.33,7.33,0,0,0-5.44,0,6,6,0,0,0-2,1.42,6.28,6.28,0,0,0-1.3,2.17A8.13,8.13,0,0,0,30.33,246.52Z"/><path class="cls-5" d="M49.73,236.61h4.35L60,251.79l5.69-15.18h4l-7.78,19.82H57.8Z"/><path class="cls-5" d="M73.11,239a10.47,10.47,0,0,1,3.68-2.2,12.6,12.6,0,0,1,4.18-.73,11.47,11.47,0,0,1,3.74.54,7.28,7.28,0,0,1,2.57,1.46,5.78,5.78,0,0,1,1.48,2.11,6.6,6.6,0,0,1,.48,2.49v10.12q0,1,0,1.92t.13,1.67H86.07q-.13-1.51-.13-3h-.08a7.21,7.21,0,0,1-3,2.72,9.36,9.36,0,0,1-4,.79,9.11,9.11,0,0,1-2.63-.38,6.41,6.41,0,0,1-2.2-1.13,5.38,5.38,0,0,1-1.48-1.86,6.42,6.42,0,0,1,.31-5.79,6.49,6.49,0,0,1,2.34-2.11,11.3,11.3,0,0,1,3.47-1.17,24.15,24.15,0,0,1,4.24-.36h2.76v-.84a4.13,4.13,0,0,0-.29-1.5,4.07,4.07,0,0,0-.88-1.36,4.2,4.2,0,0,0-1.46-1,5.58,5.58,0,0,0-2.09-.36,7.75,7.75,0,0,0-1.9.21,8.53,8.53,0,0,0-1.48.52,6.53,6.53,0,0,0-1.21.73l-1,.79Zm10.62,7.86A26.33,26.33,0,0,0,81,247a10.73,10.73,0,0,0-2.55.56,4.92,4.92,0,0,0-1.88,1.17,2.65,2.65,0,0,0-.73,1.92A2.73,2.73,0,0,0,77,253.17a5.63,5.63,0,0,0,3.12.75,6,6,0,0,0,2.63-.52A5,5,0,0,0,84.48,252a5.27,5.27,0,0,0,1-1.86,7.36,7.36,0,0,0,.29-2V246.9Z"/><path class="cls-5" d="M94.73,236.61h3.76v3.05h.08a5.54,5.54,0,0,1,2.47-2.57,8.17,8.17,0,0,1,4.06-1,8.6,8.6,0,0,1,2.74.44,6.19,6.19,0,0,1,2.3,1.36,6.56,6.56,0,0,1,1.57,2.36,9,9,0,0,1,.59,3.41v12.75h-3.76V244.72a6.61,6.61,0,0,0-.38-2.36,4.33,4.33,0,0,0-1-1.59,3.77,3.77,0,0,0-1.44-.88,5.31,5.31,0,0,0-1.69-.27,6.14,6.14,0,0,0-2.17.38,4.52,4.52,0,0,0-1.76,1.19,5.62,5.62,0,0,0-1.17,2.07,9.4,9.4,0,0,0-.42,3v10.2H94.73Z"/><path class="cls-5" d="M130.56,226.83h4v25.84h13.59v3.76h-17.6Z"/><path class="cls-5" d="M151.39,239a10.47,10.47,0,0,1,3.68-2.2,12.6,12.6,0,0,1,4.18-.73,11.47,11.47,0,0,1,3.74.54,7.28,7.28,0,0,1,2.57,1.46,5.78,5.78,0,0,1,1.48,2.11,6.6,6.6,0,0,1,.48,2.49v10.12q0,1,0,1.92t.13,1.67h-3.35q-.13-1.51-.13-3h-.08a7.21,7.21,0,0,1-3,2.72,9.36,9.36,0,0,1-4,.79,9.11,9.11,0,0,1-2.63-.38,6.41,6.41,0,0,1-2.2-1.13,5.38,5.38,0,0,1-1.48-1.86,6.42,6.42,0,0,1,.31-5.79,6.49,6.49,0,0,1,2.34-2.11A11.3,11.3,0,0,1,157,244.5a24.15,24.15,0,0,1,4.24-.36H164v-.84a4.13,4.13,0,0,0-.29-1.5,4.07,4.07,0,0,0-.88-1.36,4.2,4.2,0,0,0-1.46-1,5.58,5.58,0,0,0-2.09-.36,7.75,7.75,0,0,0-1.9.21,8.53,8.53,0,0,0-1.48.52,6.53,6.53,0,0,0-1.21.73l-1,.79ZM162,246.9a26.33,26.33,0,0,0-2.74.15,10.73,10.73,0,0,0-2.55.56,4.92,4.92,0,0,0-1.88,1.17,2.65,2.65,0,0,0-.73,1.92,2.73,2.73,0,0,0,1.15,2.47,5.63,5.63,0,0,0,3.12.75,6,6,0,0,0,2.63-.52,5,5,0,0,0,1.76-1.36,5.27,5.27,0,0,0,1-1.86,7.36,7.36,0,0,0,.29-2V246.9Z"/><path class="cls-5" d="M173,224.82h3.76v14.64h.08a6.86,6.86,0,0,1,2.89-2.45,9.19,9.19,0,0,1,4-.9,10.51,10.51,0,0,1,4.16.79,9.34,9.34,0,0,1,3.18,2.2,9.75,9.75,0,0,1,2,3.3,11.68,11.68,0,0,1,.71,4.12,11.51,11.51,0,0,1-.71,4.1,10,10,0,0,1-2,3.3,9.19,9.19,0,0,1-3.18,2.22,10.51,10.51,0,0,1-4.16.79,9.24,9.24,0,0,1-3.91-.88,7.17,7.17,0,0,1-3-2.47h-.08v2.84H173Zm10.29,28.6a6.8,6.8,0,0,0,2.72-.52,6,6,0,0,0,2-1.42,6.28,6.28,0,0,0,1.3-2.17,8.64,8.64,0,0,0,0-5.56,6.3,6.3,0,0,0-1.3-2.17,6,6,0,0,0-2-1.42,7.33,7.33,0,0,0-5.44,0,6,6,0,0,0-2,1.42,6.28,6.28,0,0,0-1.3,2.17,8.64,8.64,0,0,0,0,5.56,6.26,6.26,0,0,0,1.3,2.17,6,6,0,0,0,2,1.42A6.8,6.8,0,0,0,183.29,253.42Z"/><path class="cls-5" d="M209.09,241.59a5.79,5.79,0,0,0-1.65-1.4,4.76,4.76,0,0,0-2.4-.56,4.58,4.58,0,0,0-2.32.56,1.8,1.8,0,0,0-1,1.65,1.89,1.89,0,0,0,.56,1.42,4.45,4.45,0,0,0,1.34.88,7.8,7.8,0,0,0,1.65.5l1.51.29a17.57,17.57,0,0,1,2.28.71,6.31,6.31,0,0,1,1.84,1.09,4.71,4.71,0,0,1,1.21,1.63,5.62,5.62,0,0,1,.44,2.34,5.5,5.5,0,0,1-.71,2.86,6,6,0,0,1-1.84,1.94,7.73,7.73,0,0,1-2.57,1.09,12.85,12.85,0,0,1-2.91.33,11.48,11.48,0,0,1-4.33-.75,7.79,7.79,0,0,1-3.32-2.76l2.84-2.34a11.67,11.67,0,0,0,2,1.63,5.07,5.07,0,0,0,2.76.71,7.34,7.34,0,0,0,1.44-.15,4.46,4.46,0,0,0,1.3-.46,2.84,2.84,0,0,0,.92-.79,1.81,1.81,0,0,0,.36-1.11,1.91,1.91,0,0,0-.52-1.38,3.79,3.79,0,0,0-1.25-.86,9.1,9.1,0,0,0-1.55-.5l-1.44-.31q-1.21-.29-2.3-.67a7,7,0,0,1-1.92-1,4.63,4.63,0,0,1-1.34-1.59,5.11,5.11,0,0,1-.5-2.38,5.4,5.4,0,0,1,.65-2.7,5.77,5.77,0,0,1,1.71-1.9,7.75,7.75,0,0,1,2.43-1.13,10.21,10.21,0,0,1,2.74-.38,10.06,10.06,0,0,1,3.85.75,6.09,6.09,0,0,1,2.93,2.51Z"/></g></g></svg>